Coordinates
version=1
nRows=12
nColumns=24
inDegrees=yes

Units are S.I. units (second, meters, Newtons, ...)
Angles are in degrees.

endheader
time	pelvis_tilt	pelvis_list	pelvis_rotation	pelvis_tx	pelvis_ty	pelvis_tz	hip_flexion_r	hip_adduction_r	hip_rotation_r	knee_angle_r	ankle_angle_r	subtalar_angle_r	mtp_angle_r	hip_flexion_l	hip_adduction_l	hip_rotation_l	knee_angle_l	ankle_angle_l	subtalar_angle_l	mtp_angle_l	lumbar_extension	lumbar_bending	lumbar_rotation
      5.98000000	     -0.10688128	      3.78184625	      8.49102836	     -1.65126475	      0.89068479	      0.22477252	      5.05508907	     -1.27637683	      7.98297919	    -14.99656006	     15.32692308	     -7.56391384	      0.00000000	     23.07309220	      5.39743408	     -4.50992964	    -65.61802622	      2.46294664	     -1.52530385	      0.00000000	    -20.21560333	     -0.43894836	    -16.39581586
      5.99000000	     -0.28252136	      4.06978145	      8.23111911	     -1.64075820	      0.89104214	      0.22511702	      4.14389634	     -1.49901663	      8.24114405	    -14.32933436	     15.69680420	     -7.68968463	      0.00000000	     24.09171151	      5.62288771	     -5.37935266	    -63.53051361	      4.15366252	     -0.36481682	      0.00000000	    -20.28924030	     -0.88602812	    -16.03968592
      6.00000000	     -0.46898893	      4.28355090	      7.99280205	     -1.63031172	      0.89109904	      0.22535892	      3.27744320	     -1.65772423	      8.49109813	    -13.70561105	     16.08690963	     -7.77069257	      0.00000000	     25.03334755	      5.79405232	     -6.14518097	    -61.14561342	      5.55969658	      0.45628644	      0.00000000	    -20.35836928	     -1.21933982	    -15.80400244
      6.01000000	     -0.61757979	      4.46071149	      7.72134119	     -1.61992887	      0.89096035	      0.22560163	      2.40543446	     -1.77420585	      8.80497225	    -13.12134240	     16.44691503	     -7.93940133	      0.00000000	     25.81836666	      5.93741155	     -6.82229888	    -58.43082582	      6.67680778	      0.87689032	      0.00000000	    -20.50611411	     -1.52058146	    -15.45659196
      6.02000000	     -0.78813631	      4.56253335	      7.46951608	     -1.60954986	      0.89053906	      0.22575707	      1.58065323	     -1.82569869	      9.09829970	    -12.56885464	     16.82943646	     -8.07217311	      0.00000000	     26.51606330	      6.03309387	     -7.36477162	    -55.41311558	      7.52583149	      0.95607674	      0.00000000	    -20.61326444	     -1.72463996	    -15.22353156
      6.03000000	     -0.92204109	      4.61682543	      7.19275779	     -1.59921441	      0.88998157	      0.22584691	      0.74623245	     -1.83323293	      9.42790745	    -12.05282985	     17.15767720	     -8.22517456	      0.00000000	     27.03287840	      6.11935406	     -7.73300013	    -52.04974372	      8.10338175	      0.64928174	      0.00000000	    -20.79047928	     -1.86862282	    -14.86471170
      6.04000000	     -1.05571046	      4.61685006	      6.90258765	     -1.58886119	      0.88923365	      0.22589488	     -0.06529255	     -1.79310898	      9.75732058	    -11.56958702	     17.48607394	     -8.35632987	      0.00000000	     27.39589719	      6.17239206	     -7.94938128	    -48.34593941	      8.45038829	      0.05202632	      0.00000000	    -20.95839098	     -1.95563451	    -14.53270044
      6.05000000	     -1.24389549	      4.57266649	      6.61165965	     -1.57843513	      0.88824721	      0.22586762	     -0.80972788	     -1.72544935	     10.06125616	    -11.10215843	     17.80233425	     -8.46129579	      0.00000000	     27.64184616	      6.21084499	     -8.01162409	    -44.28602846	      8.55542676	     -0.83683302	      0.00000000	    -21.03875096	     -2.00077355	    -14.23908971
      6.06000000	     -1.37745216	      4.48341631	      6.25305472	     -1.56795622	      0.88718892	      0.22585482	     -1.58605707	     -1.61396180	     10.41311908	    -10.67201904	     18.09242628	     -8.54389204	      0.00000000	     27.63181213	      6.20319291	     -7.91203266	    -39.85191546	      8.42181015	     -1.99530048	      0.00000000	    -21.17386198	     -2.00843716	    -13.82906503
      6.07000000	     -1.48631147	      4.32693307	      5.85219080	     -1.55737683	      0.88598724	      0.22586028	     -2.37408543	     -1.43653724	     10.78896778	    -10.26473730	     18.35060502	     -8.61940787	      0.00000000	     27.40007478	      6.11662788	     -7.66323700	    -35.07580493	      8.06747921	     -3.35421117	      0.00000000	    -21.31540138	     -1.96112522	    -13.35790996
      6.08000000	     -1.51781702	      4.10243846	      5.39574732	     -1.54660319	      0.88469504	      0.22591181	     -3.25304745	     -1.19061341	     11.19595279	     -9.84658585	     18.57792623	     -8.70098114	      0.00000000	     26.89824721	      5.91658918	     -7.34945682	    -30.00917840	      7.50131230	     -4.84327225	      0.00000000	    -21.50494428	     -1.85048640	    -12.82829072
      6.09000000	     -1.44886764	      3.80640911	      4.91186620	     -1.53558979	      0.88332682	      0.22606567	     -4.24069641	     -0.85818333	     11.58190938	     -9.44843826	     18.75044686	     -8.85177010	      0.00000000	     26.13023351	      5.58925240	     -6.99746414	    -24.73872258	      6.73699962	     -6.29019145	      0.00000000	    -21.76480579	     -1.70358868	    -12.26980535
